<mxfile host="app.diagrams.net" modified="2024-02-15T07:38:26.829Z" agent="Mozilla/5.0 (Windows NT 10.0; Win64; x64) AppleWebKit/537.36 (KHTML, like Gecko) Chrome/121.0.0.0 Safari/537.36" etag="YDd6Wj89r3jq_HaesHmj" version="23.1.4" type="device">
  <diagram id="6a731a19-8d31-9384-78a2-239565b7b9f0" name="Page-1">
    <mxGraphModel dx="1195" dy="722" grid="0" gridSize="10" guides="1" tooltips="1" connect="1" arrows="1" fold="1" page="1" pageScale="1" pageWidth="827" pageHeight="1169" background="none" math="0" shadow="0">
      <root>
        <mxCell id="0" />
        <mxCell id="1" parent="0" />
        <mxCell id="aeUSXFv6DuZdKt-KQHsj-2257" value="" style="shape=mxgraph.cisco.switches.workgroup_switch;sketch=0;html=1;pointerEvents=1;dashed=0;fillColor=#036897;strokeColor=#ffffff;strokeWidth=2;verticalLabelPosition=bottom;verticalAlign=top;align=center;outlineConnect=0;" vertex="1" parent="1">
          <mxGeometry x="390" y="294" width="101" height="50" as="geometry" />
        </mxCell>
        <mxCell id="aeUSXFv6DuZdKt-KQHsj-2258" value="" style="shape=mxgraph.cisco.computers_and_peripherals.workstation;sketch=0;html=1;pointerEvents=1;dashed=0;fillColor=#036897;strokeColor=#ffffff;strokeWidth=2;verticalLabelPosition=bottom;verticalAlign=top;align=center;outlineConnect=0;" vertex="1" parent="1">
          <mxGeometry x="240" y="289.5" width="83" height="62" as="geometry" />
        </mxCell>
        <mxCell id="aeUSXFv6DuZdKt-KQHsj-2259" value="" style="shape=mxgraph.cisco.routers.router;sketch=0;html=1;pointerEvents=1;dashed=0;fillColor=#036897;strokeColor=#ffffff;strokeWidth=2;verticalLabelPosition=bottom;verticalAlign=top;align=center;outlineConnect=0;" vertex="1" parent="1">
          <mxGeometry x="580" y="292.5" width="78" height="53" as="geometry" />
        </mxCell>
        <mxCell id="aeUSXFv6DuZdKt-KQHsj-2260" value="" style="endArrow=none;html=1;rounded=0;exitX=0.755;exitY=0.5;exitDx=0;exitDy=0;exitPerimeter=0;" edge="1" parent="1" source="aeUSXFv6DuZdKt-KQHsj-2258" target="aeUSXFv6DuZdKt-KQHsj-2257">
          <mxGeometry width="50" height="50" relative="1" as="geometry">
            <mxPoint x="690" y="80" as="sourcePoint" />
            <mxPoint x="740" y="30" as="targetPoint" />
          </mxGeometry>
        </mxCell>
        <mxCell id="aeUSXFv6DuZdKt-KQHsj-2261" value="" style="endArrow=none;html=1;rounded=0;exitX=0.98;exitY=0.5;exitDx=0;exitDy=0;exitPerimeter=0;entryX=0;entryY=0.5;entryDx=0;entryDy=0;entryPerimeter=0;" edge="1" parent="1" source="aeUSXFv6DuZdKt-KQHsj-2257" target="aeUSXFv6DuZdKt-KQHsj-2259">
          <mxGeometry width="50" height="50" relative="1" as="geometry">
            <mxPoint x="690" y="80" as="sourcePoint" />
            <mxPoint x="740" y="30" as="targetPoint" />
          </mxGeometry>
        </mxCell>
        <mxCell id="aeUSXFv6DuZdKt-KQHsj-2262" value="PC-A" style="text;html=1;align=center;verticalAlign=middle;resizable=0;points=[];autosize=1;strokeColor=none;fillColor=none;fontStyle=1;fontFamily=Times New Roman;fontSize=13;fontColor=#FFFFFF;" vertex="1" parent="1">
          <mxGeometry x="248" y="295.5" width="50" height="30" as="geometry" />
        </mxCell>
        <mxCell id="aeUSXFv6DuZdKt-KQHsj-2264" value="S1" style="text;html=1;align=center;verticalAlign=middle;resizable=0;points=[];autosize=1;strokeColor=none;fillColor=none;fontStyle=1;fontFamily=Times New Roman;fontSize=13;fontColor=#FFFFFF;" vertex="1" parent="1">
          <mxGeometry x="410" y="316" width="40" height="30" as="geometry" />
        </mxCell>
        <mxCell id="aeUSXFv6DuZdKt-KQHsj-2265" value="R1" style="text;html=1;align=center;verticalAlign=middle;resizable=0;points=[];autosize=1;strokeColor=none;fillColor=none;fontStyle=1;fontFamily=Times New Roman;fontSize=13;fontColor=#FFFFFF;" vertex="1" parent="1">
          <mxGeometry x="599" y="318.5" width="40" height="30" as="geometry" />
        </mxCell>
        <mxCell id="aeUSXFv6DuZdKt-KQHsj-2266" value="F0/6" style="text;html=1;align=center;verticalAlign=middle;resizable=0;points=[];autosize=1;strokeColor=none;fillColor=none;fontStyle=1;fontFamily=Times New Roman;" vertex="1" parent="1">
          <mxGeometry x="350" y="314" width="50" height="30" as="geometry" />
        </mxCell>
        <mxCell id="aeUSXFv6DuZdKt-KQHsj-2267" value="F0/5" style="text;html=1;align=center;verticalAlign=middle;resizable=0;points=[];autosize=1;strokeColor=none;fillColor=none;fontStyle=1;fontFamily=Times New Roman;" vertex="1" parent="1">
          <mxGeometry x="480" y="295.5" width="50" height="30" as="geometry" />
        </mxCell>
        <mxCell id="aeUSXFv6DuZdKt-KQHsj-2268" value="G0/0/1" style="text;html=1;align=center;verticalAlign=middle;resizable=0;points=[];autosize=1;strokeColor=none;fillColor=none;fontStyle=1;fontFamily=Times New Roman;" vertex="1" parent="1">
          <mxGeometry x="530" y="315.5" width="60" height="30" as="geometry" />
        </mxCell>
      </root>
    </mxGraphModel>
  </diagram>
</mxfile>
